<svg xmlns="http://www.w3.org/2000/svg" width="491.83" height="293" viewBox="0 0 491.83 293">
  <g id="Group_3" data-name="Group 3" transform="translate(-674 -375)">
    <circle id="Ellipse_1" data-name="Ellipse 1" cx="146.5" cy="146.5" r="146.5" transform="translate(674 375)" fill="#ed2929"/>
    <path id="Path_2" data-name="Path 2" d="M182.86-167.075c-20.09,7.79-42.64,11.89-68.06,12.3v88.97C113.98-35.67,107.625-12.1,96.145,4.92L111.52,21.115c14.965-21.73,22.96-50.635,23.985-86.92V-85.28h22.14v106.8H178.76V-85.28h18.86v-20.295H135.505V-137.35q31.672-1.845,57.81-10.455ZM11.685-152.725v19.68H105.78v-19.68H68.47c-2.46-6.56-4.715-12.5-7.175-17.835l-22.14,3.69a115.8,115.8,0,0,1,8,14.145ZM9.635-106.19v19.475h38.95V-70.11H12.915v19.475h35.67V-2.05c0,3.895-2.46,5.945-6.97,5.945a34.371,34.371,0,0,1-8.4-1.435l4.715,19.68h10.66c14.145,0,21.32-6.355,21.32-19.065v-53.71h33.62V-70.11H69.9V-86.715H107.01V-106.19H87.125c2.665-5.945,5.125-12.3,7.585-19.27l-19.065-6.765A256.529,256.529,0,0,1,67.65-106.19H49.61A239.233,239.233,0,0,0,40.8-132.225l-18.86,7.175a122.454,122.454,0,0,1,8.61,18.86ZM24.4-42.64A152.675,152.675,0,0,1,5.945,4.51L23.78,15.785C32.39.41,38.95-17.63,43.665-38.54Zm66.42-1.23-17.63,4.715a327.483,327.483,0,0,1,11.48,37.31l18.04-6.97A355.276,355.276,0,0,0,90.815-43.87Z" transform="translate(728 595)" fill="#fff"/>
    <path id="Path_3" data-name="Path 3" d="M189.83-156.62H106.19V15.17H126.9V-2.05H168.92V12.71h20.91ZM126.9-22.14V-136.735H168.92V-22.14ZM13.735-114.185V-94.3h33.62v1.025c-8.61,20.09-21.73,38.13-39.565,54.12L17.015-15.58a209.568,209.568,0,0,0,30.34-45.1V19.065h20.5V-66.01Q77.08-54.325,90-35.26l12.5-18.655a426.732,426.732,0,0,0-34.645-33V-94.3h32.8v-19.885h-32.8V-140.63a296.14,296.14,0,0,0,31.775-9.43L89.585-167.69c-18.86,7.175-44.485,12.1-76.465,14.76l6.97,19.065c9.02-.615,18.245-1.64,27.265-3.075v22.755Z" transform="translate(976 595)" fill="#fff"/>
  </g>
</svg>
